<svg width="25" height="25" viewBox="0 0 25 25" fill="none" xmlns="http://www.w3.org/2000/svg">
<g opacity="0.5">
<circle cx="12.5" cy="12.5" r="12.5" fill="#FEAD04"/>
</g>
<g opacity="0.5">
<path d="M19.2852 9.7192C19.134 9.15692 18.6906 8.71368 18.1284 8.56227C17.1014 8.28125 12.993 8.28125 12.993 8.28125C12.993 8.28125 8.88479 8.28125 7.85772 8.55162C7.30633 8.70286 6.8522 9.157 6.70095 9.7192C6.43066 10.7462 6.43066 12.876 6.43066 12.876C6.43066 12.876 6.43066 15.0166 6.70095 16.0329C6.85236 16.5951 7.29552 17.0383 7.8578 17.1897C8.89561 17.4708 12.9932 17.4708 12.9932 17.4708C12.9932 17.4708 17.1014 17.4708 18.1284 17.2005C18.6907 17.0491 19.134 16.6059 19.2854 16.0437C19.5556 15.0166 19.5556 12.8869 19.5556 12.8869C19.5556 12.8869 19.5664 10.7462 19.2852 9.7192ZM11.685 14.8437V10.9084L15.1013 12.876L11.685 14.8437Z" fill="white"/>
</g>
</svg>
