<svg width="25" height="25" viewBox="0 0 25 25" fill="none" xmlns="http://www.w3.org/2000/svg">
<circle cx="12.5" cy="12.5" r="12.5" fill="#FEAD04"/>
<g clip-path="url(#clip0_518_597)">
<path d="M17.997 17.9982V17.9977H18V13.5967C18 11.4437 17.5365 9.78516 15.0195 9.78516C13.8095 9.78516 12.9975 10.4492 12.666 11.0787H12.631V9.98616H10.2445V17.9977H12.7295V14.0307C12.7295 12.9862 12.9275 11.9762 14.221 11.9762C15.4955 11.9762 15.5145 13.1682 15.5145 14.0977V17.9982H17.997Z" fill="white"/>
<path d="M6.198 9.98828H8.686V17.9998H6.198V9.98828Z" fill="white"/>
<path d="M7.441 6C6.6455 6 6 6.6455 6 7.441C6 8.2365 6.6455 8.8955 7.441 8.8955C8.2365 8.8955 8.882 8.2365 8.882 7.441C8.8815 6.6455 8.236 6 7.441 6V6Z" fill="white"/>
</g>
<defs>
<clipPath id="clip0_518_597">
<rect width="12" height="12" fill="white" transform="translate(6 6)"/>
</clipPath>
</defs>
</svg>
